<?xml version="1.0" standalone="no"?>
<!DOCTYPE svg PUBLIC "-//W3C//DTD SVG 20010904//EN"
 "http://www.w3.org/TR/2001/REC-SVG-20010904/DTD/svg10.dtd">
<svg version="1.0" xmlns="http://www.w3.org/2000/svg"
 width="512.000000pt" height="512.000000pt" viewBox="0 0 512.000000 512.000000"
 preserveAspectRatio="xMidYMid meet">
<metadata>
Created by potrace 1.11, written by Peter Selinger 2001-2013
</metadata>
<g transform="translate(0.000000,512.000000) scale(0.100000,-0.100000)"
fill="#000000" stroke="none">
<path d="M4824 4671 c-5 -5 -43 -27 -84 -49 -138 -72 -252 -133 -324 -172 -84
-45 -175 -93 -306 -162 -52 -28 -108 -58 -125 -68 -16 -9 -68 -38 -115 -62
-47 -25 -222 -119 -390 -208 -168 -90 -343 -183 -390 -208 -47 -25 -107 -57
-135 -72 -27 -15 -90 -49 -140 -75 -49 -26 -146 -78 -215 -115 -151 -81 -253
-136 -357 -191 -73 -39 -147 -78 -288 -154 -33 -18 -100 -54 -150 -80 -49 -26
-146 -78 -215 -115 -134 -73 -230 -123 -380 -202 -52 -28 -113 -61 -135 -73
-22 -12 -89 -48 -150 -80 -60 -32 -123 -66 -140 -75 -16 -10 -82 -45 -145 -78
-63 -34 -182 -97 -265 -141 -82 -45 -182 -98 -222 -118 -40 -20 -70 -39 -68
-41 2 -3 96 -6 207 -8 112 -1 401 -6 643 -9 242 -4 499 -8 571 -9 l131 -2 123
-164 c68 -90 127 -169 131 -174 5 -6 23 -29 40 -51 16 -22 35 -47 42 -55 7 -9
28 -37 47 -63 19 -26 67 -89 105 -140 39 -50 183 -240 320 -422 136 -181 258
-342 269 -357 12 -14 32 -41 46 -59 14 -18 35 -45 47 -59 l21 -25 87 180 c48
99 145 297 214 440 70 143 147 302 172 352 24 51 47 93 50 93 4 0 83 -96 175
-212 93 -117 176 -222 185 -233 10 -11 88 -110 175 -220 87 -110 163 -205 169
-211 5 -7 48 -60 94 -118 46 -59 85 -106 86 -104 2 2 6 26 9 53 4 28 11 77 16
110 15 99 19 128 25 180 4 28 8 57 10 65 3 8 7 40 10 70 3 30 8 62 10 70 2 8
7 40 10 70 3 30 8 62 10 70 2 8 6 33 9 55 11 85 47 341 52 365 2 14 6 45 9 70
3 25 8 54 10 65 2 11 7 43 10 71 3 28 8 61 10 74 3 13 7 42 10 65 3 22 10 69
15 105 5 36 12 81 14 100 3 19 12 85 21 145 21 146 23 164 40 275 7 52 17 115
20 140 6 47 9 67 20 140 4 25 8 56 10 70 2 14 7 45 10 70 9 59 14 96 20 145 3
22 7 51 10 65 3 14 7 44 10 67 4 38 8 64 20 143 2 14 9 61 15 105 6 44 12 91
15 105 2 14 20 135 39 270 46 320 44 310 61 420 8 52 17 120 20 150 4 30 12
89 19 130 8 41 13 76 12 77 -1 2 -7 -1 -12 -6z"/>
</g>
</svg>
